Esta é a versão estendida que foi exibida em serie pela globo, devido ao fato de ser muito difícil encontrar na web para download baixei do youtube, a qualidade n está boa porem melhor que nada.  -))



Format                                   : MPEG-4
Format profile                           : Base Media / Version 2
Codec ID                                 : mp42
File size                                : 468 MiB
Duration                                 : 2h 37mn
Overall bit rate mode                    : Variable
Overall bit rate                         : 416 Kbps
Encoded date                             : UTC 2012-05-25 04:48:23


Video
ID                                       : 1
Format                                   : AVC
Format/Info                              : Advanced Video Codec
Format profile                           : Baseline@L1.3
Format settings, CABAC                   : No
Format settings, ReFrames                : 1 frame
Format settings, GOP                     : M=1, N=30
Codec ID                                 : avc1
Codec ID/Info                            : Advanced Video Coding
Duration                                 : 2h 37mn
Bit rate                                 : 317 Kbps
Maximum bit rate                         : 1 622 Kbps
Width                                    : 320 pixels
Height                                   : 240 pixels
Display aspect ratio                     : 4:3
Frame rate mode                          : Constant
Frame rate                               : 30.000 fps
Color space                              : YUV
Chroma subsampling                       : 4:2:0
Bit depth                                : 8 bits
Scan type                                : Progressive
Bits/(Pixel*Frame)                       : 0.138
Stream size                              : 357 MiB (76%)
Tagged date                              : UTC 2012-05-25 04:49:13

Audio
ID                                       : 2
Format                                   : AAC
Format/Info                              : Advanced Audio Codec
Format profile                           : LC
Codec ID                                 : 40
Duration                                 : 2h 37mn
Bit rate mode                            : Variable
Bit rate                                 : 96.0 Kbps
Maximum bit rate                         : 169 Kbps
Channel(s)                               : 2 channels
Channel positions                        : Front: L R
Sampling rate                            : 44.1 KHz
Compression mode                         : Lossy
Stream size                              : 108 MiB (23%)
